<svg xmlns="http://www.w3.org/2000/svg" width="24" height="23" viewBox="0 0 24 23" fill="none">
<g clip-path="url(#clip0_10419_1267)">
<path d="M11.3423 0.0873642C11.0399 0.183966 10.5983 0.501366 10.4495 0.712965C10.3247 0.901566 10.2815 0.906164 10.0415 0.768166C9.40314 0.390965 8.81754 0.312765 8.05914 0.505964C7.24794 0.717566 6.57114 1.39837 6.37434 2.20337C6.31674 2.44257 6.31674 2.44717 6.17274 2.41496C6.09114 2.40117 5.82714 2.37817 5.58714 2.35977C5.08793 2.33216 4.87194 2.38276 4.30073 2.65417C3.57114 3.00377 3.02394 3.79497 3.02394 4.49417C3.02394 4.68277 3.01913 4.69197 2.88474 4.69197C2.62554 4.69197 2.09274 4.83457 1.81433 4.97717C0.859135 5.46477 0.374335 6.77577 0.767935 7.81997L0.878335 8.11897L0.614335 8.49157C0.407935 8.77677 0.326335 8.94237 0.268735 9.19077C0.086335 9.96817 0.259135 10.649 0.787135 11.2102C0.907135 11.339 1.00793 11.477 1.00793 11.5184C1.00793 11.5598 0.955135 11.6932 0.892735 11.8128C0.532735 12.4936 0.532735 13.2618 0.897535 13.984C1.06073 14.306 1.38234 14.6326 1.73753 14.8442C1.94873 14.9684 2.01114 15.0282 1.98714 15.0834C1.78553 15.5434 1.78074 16.2932 1.98714 16.8038C2.18874 17.3144 2.71194 17.8848 3.19194 18.1148C3.42714 18.2252 3.91194 18.308 4.33434 18.308H4.65113L4.67993 18.5242C4.71834 18.8186 4.88634 19.3522 4.94394 19.389C4.97274 19.4028 4.99194 19.458 4.99194 19.504C4.99194 19.6052 5.40474 20.102 5.49114 20.102C5.52954 20.102 5.58233 20.1342 5.62074 20.1756C5.71674 20.286 6.19194 20.5022 6.53274 20.585C6.83514 20.6632 7.37754 20.6586 7.76634 20.585L7.91994 20.5528V21.6614V22.7746L8.03994 22.885C8.20794 23.0506 8.50554 23.046 8.66394 22.8804C8.78394 22.7562 8.78394 22.7562 8.78394 21.7304C8.78394 21.1646 8.79354 20.7 8.80794 20.7C8.81754 20.7 8.99514 20.8196 9.20154 20.9668C10.6655 22.0202 11.0687 22.195 11.9999 22.195C12.8591 22.195 13.2095 22.0524 14.3759 21.2566C14.6927 21.0404 14.9951 20.8242 15.0431 20.7828C15.0959 20.7368 15.1535 20.7 15.1775 20.7C15.1967 20.7 15.2159 21.1646 15.2159 21.7304C15.2159 22.7562 15.2159 22.7562 15.3359 22.8804C15.4943 23.046 15.7919 23.0506 15.9599 22.885L16.0799 22.7746V21.6614V20.5528L16.2143 20.585C16.4831 20.6494 17.1119 20.6632 17.3663 20.608C17.8751 20.4976 18.5087 20.1618 18.7823 19.8444C19.0031 19.596 19.2431 18.998 19.3199 18.5012L19.3535 18.308H19.6703C20.0303 18.308 20.6063 18.216 20.7743 18.1286C21.4319 17.7928 21.9695 17.1442 22.1231 16.5094C22.1999 16.2012 22.1807 15.6998 22.0847 15.341C22.0319 15.1616 22.0031 15.0052 22.0175 14.9822C22.0271 14.9638 22.1279 14.904 22.2335 14.8534C22.5743 14.6878 22.9391 14.3152 23.1119 13.961C23.4671 13.2296 23.4671 12.4936 23.1071 11.8128C23.0447 11.6932 22.9919 11.5598 22.9919 11.5184C22.9919 11.477 23.0735 11.3528 23.1743 11.2516C23.6879 10.718 23.8943 10.0418 23.7503 9.35177C23.6591 8.91477 23.5871 8.75837 23.3231 8.42257C23.1119 8.15577 23.1071 8.10977 23.2559 7.72797C23.2991 7.61297 23.3471 7.36457 23.3615 7.17597C23.4239 6.31577 22.9343 5.40037 22.1855 4.98177C21.9695 4.85757 21.3503 4.69197 21.1103 4.69197C20.9903 4.69197 20.9759 4.67357 20.9759 4.53557C20.9759 4.30557 20.7647 3.68917 20.5967 3.44997C20.3951 3.15097 20.2079 2.97157 19.8719 2.76457C19.3199 2.41957 18.7247 2.30917 17.9759 2.40577L17.6879 2.44257L17.5775 2.08377C17.4335 1.63297 17.2991 1.41677 16.9679 1.09476C16.4735 0.616365 15.8207 0.386364 15.0719 0.427765C14.6543 0.450766 14.2031 0.588764 13.9103 0.786566C13.7375 0.906164 13.6703 0.896965 13.5599 0.731365C13.4207 0.528965 12.9263 0.179365 12.6479 0.0827656C12.3215 -0.0276356 11.6735 -0.023035 11.3423 0.0873642ZM8.66394 7.18517C8.96154 7.33697 9.17274 7.54397 9.56154 8.07757C10.2959 9.09417 10.8287 9.64617 11.2943 9.87157C11.9663 10.2028 13.0991 10.4742 14.0639 10.534C15.6767 10.6398 16.8863 10.9802 18.1439 11.684L18.4943 11.8818L18.4655 12.7834C18.4127 14.2738 18.2207 15.5664 17.9279 16.376C17.4239 17.779 16.8287 18.5564 15.5999 19.4074C15.4031 19.5454 15.1103 19.7524 14.9519 19.8628C14.7935 19.9732 14.6159 20.0836 14.5535 20.1066C14.4671 20.1388 13.3391 20.8794 12.9839 21.137C12.8351 21.2474 12.4319 21.3762 12.1343 21.413C11.9231 21.4406 11.7887 21.4268 11.5343 21.3532C11.1791 21.2474 11.0303 21.1646 10.1279 20.5482C9.79674 20.3228 9.47514 20.1204 9.41754 20.0974C9.35513 20.0744 9.18234 19.964 9.02874 19.8582C8.87994 19.7478 8.59674 19.5454 8.39994 19.4074C6.68634 18.2206 5.90394 16.813 5.60634 14.398C5.56314 14.0208 5.54394 13.1652 5.54394 11.385C5.54394 8.59737 5.51994 8.80437 5.91834 8.30297C6.16794 7.99017 7.13274 7.24497 7.44954 7.11617C7.75674 6.99657 8.34714 7.02877 8.66394 7.18517Z" fill="#767676"/>
</g>
<defs>
<clipPath id="clip0_10419_1267">
<rect width="24" height="23" fill="#730301"/>
</clipPath>
</defs>
</svg>