<svg width="13" height="29" viewBox="0 0 13 29" fill="none" xmlns="http://www.w3.org/2000/svg">
<path fill-rule="evenodd" clip-rule="evenodd" d="M4.75737 2.33631C5.88259 0.863061 7.40871 0.0354004 9.00001 0.0354004H12C12.5523 0.0354004 13 0.621593 13 1.3447V6.58189C13 7.305 12.5523 7.89119 12 7.89119H9.00001V10.5098H12C12.3079 10.5098 12.5987 10.6955 12.7882 11.0133C12.9777 11.3311 13.0448 11.7455 12.9701 12.1366L11.9701 17.3738C11.8589 17.9567 11.4589 18.3656 11 18.3656H9.00001V27.5307C9.00001 28.2538 8.55229 28.84 8.00001 28.84H4.00001C3.44772 28.84 3.00001 28.2538 3.00001 27.5307V18.3656H1.00001C0.447723 18.3656 7.62939e-06 17.7794 7.62939e-06 17.0563V11.8191C7.62939e-06 11.096 0.447723 10.5098 1.00001 10.5098H3.00001V7.89119C3.00001 5.8077 3.63215 3.80955 4.75737 2.33631ZM9.00001 2.654C7.93914 2.654 6.92173 3.20577 6.17158 4.18793C5.42143 5.1701 5.00001 6.5022 5.00001 7.89119V11.8191C5.00001 12.5422 4.55229 13.1284 4.00001 13.1284H2.00001V15.747H4.00001C4.55229 15.747 5.00001 16.3332 5.00001 17.0563V26.2214H7.00001V17.0563C7.00001 16.3332 7.44772 15.747 8.00001 15.747H10.2192L10.7192 13.1284H8.00001C7.44772 13.1284 7.00001 12.5422 7.00001 11.8191V7.89119C7.00001 7.19669 7.21072 6.53064 7.58579 6.03956C7.96087 5.54848 8.46957 5.27259 9.00001 5.27259H11V2.654H9.00001Z" fill="#730301"/>
</svg>
