<svg width="22" height="29" viewBox="0 0 22 29" fill="none" xmlns="http://www.w3.org/2000/svg">
<path fill-rule="evenodd" clip-rule="evenodd" d="M5.99999 2.654C3.79086 2.654 1.99999 4.99877 1.99999 7.89119V20.9842C1.99999 23.8766 3.79086 26.2214 5.99999 26.2214H16C18.2091 26.2214 20 23.8766 20 20.9842V7.89119C20 4.99877 18.2091 2.654 16 2.654H5.99999ZM-5.72205e-06 7.89119C-5.72205e-06 3.55256 2.68629 0.0354004 5.99999 0.0354004H16C19.3137 0.0354004 22 3.55256 22 7.89119V20.9842C22 25.3228 19.3137 28.84 16 28.84H5.99999C2.68629 28.84 -5.72205e-06 25.3228 -5.72205e-06 20.9842V7.89119Z" fill="#730301"/>
<path fill-rule="evenodd" clip-rule="evenodd" d="M11.4833 10.4957C10.8591 10.3745 10.2217 10.5141 9.66155 10.8946C9.10145 11.2751 8.64725 11.8772 8.36356 12.6151C8.07986 13.3531 7.98112 14.1894 8.08137 15.0051C8.18161 15.8208 8.47575 16.5743 8.92194 17.1585C9.36814 17.7427 9.94366 18.1278 10.5667 18.2591C11.1896 18.3904 11.8284 18.2611 12.392 17.8896C12.9557 17.5182 13.4155 16.9235 13.7061 16.1902C13.9968 15.4568 14.1034 14.6222 14.0108 13.8049C13.9164 12.9713 13.6197 12.1996 13.1646 11.6037C12.7095 11.0077 12.12 10.6193 11.4833 10.4957ZM8.74041 8.57028C9.67391 7.93609 10.7364 7.70343 11.7767 7.90541C12.8378 8.11144 13.8202 8.75885 14.5788 9.75202C15.3374 10.7452 15.8318 12.0315 15.9892 13.4208C16.1434 14.7829 15.9658 16.174 15.4814 17.3962C14.997 18.6184 14.2306 19.6096 13.2912 20.2286C12.3518 20.8477 11.2872 21.0632 10.2489 20.8444C9.21059 20.6257 8.25138 19.9838 7.50773 19.0102C6.76408 18.0365 6.27385 16.7806 6.10677 15.4211C5.93969 14.0617 6.10426 12.6678 6.57709 11.4379C7.04992 10.2079 7.80691 9.20447 8.74041 8.57028Z" fill="#730301"/>
<path fill-rule="evenodd" clip-rule="evenodd" d="M15.5 17.2365C15.5 16.5134 15.9477 15.9272 16.5 15.9272H16.51C17.0623 15.9272 17.51 16.5134 17.51 17.2365C17.51 17.9596 17.0623 18.5458 16.51 18.5458H16.5C15.9477 18.5458 15.5 17.9596 15.5 17.2365Z" fill="#730301"/>
</svg>
