<?xml version="1.0" standalone="no"?>
<!DOCTYPE svg PUBLIC "-//W3C//DTD SVG 20010904//EN"
 "http://www.w3.org/TR/2001/REC-SVG-20010904/DTD/svg10.dtd">
<svg version="1.0" xmlns="http://www.w3.org/2000/svg"
 width="797.000000pt" height="313.000000pt" viewBox="0 0 797.000000 313.000000"
 preserveAspectRatio="xMidYMid meet">

<g transform="translate(0.000000,313.000000) scale(0.100000,-0.100000)"
fill="#000000" stroke="none">
<path d="M1805 2951 c-101 -28 -150 -67 -254 -197 -36 -46 -38 -51 -18 -47 13
3 39 0 58 -5 29 -9 30 -10 9 -11 -33 -2 -52 -14 -48 -32 2 -8 -4 -13 -14 -13
-14 1 -15 -2 -6 -21 6 -13 20 -28 32 -34 28 -14 177 -61 194 -61 7 0 10 -4 7
-10 -19 -31 -161 14 -248 78 -47 34 -49 34 -45 11 3 -26 71 -81 163 -134 53
-30 69 -34 143 -36 45 -1 82 -6 82 -10 0 -5 -7 -9 -15 -9 -22 0 -75 -29 -75
-40 0 -6 23 -10 50 -10 57 0 64 -10 19 -27 -17 -7 -28 -16 -25 -22 10 -15 96
-22 174 -13 56 6 75 5 83 -5 8 -9 7 -14 -4 -19 -9 -3 -20 -4 -24 -1 -9 5 -163
-20 -171 -28 -2 -2 -2 -12 2 -21 5 -14 16 -15 74 -10 74 7 74 7 -4 -50 -29
-21 -29 -22 -10 -43 19 -21 42 -28 48 -13 4 9 63 52 72 52 13 0 5 -28 -9 -34
-24 -9 -18 -36 6 -33 27 3 35 -16 14 -36 -18 -19 -19 -29 -2 -46 7 -7 13 -43
13 -89 1 -42 5 -160 8 -262 4 -102 3 -224 -1 -271 -5 -50 -5 -128 1 -185 16
-165 14 -290 -6 -310 -16 -16 -19 -16 -51 9 -38 29 -39 36 -16 218 13 101 4
386 -12 406 -18 21 -36 15 -42 -14 -4 -19 -1 -32 11 -41 12 -9 13 -15 4 -24
-16 -16 -15 -28 3 -28 8 0 15 -4 15 -10 0 -5 -9 -10 -20 -10 -12 0 -24 -10
-30 -22 -6 -16 -9 22 -11 117 -2 174 -2 167 -14 185 -5 8 -10 66 -11 128 0 87
3 112 13 112 9 0 13 -13 12 -42 -1 -24 2 -70 5 -103 4 -33 9 -93 12 -133 5
-68 7 -73 27 -70 26 4 26 18 7 143 -6 44 -13 91 -15 105 -2 14 -5 78 -6 143
l-3 118 -30 13 c-17 7 -34 12 -37 10 -14 -8 -31 -178 -25 -242 3 -37 11 -112
16 -167 23 -219 23 -230 7 -243 -32 -27 -255 -130 -292 -136 -22 -3 -56 -2
-75 2 -31 7 -36 13 -45 50 -13 50 -30 71 -46 55 -27 -27 -96 -277 -82 -296 18
-23 22 -58 7 -64 -8 -3 -14 -11 -14 -19 0 -8 -4 -14 -10 -14 -5 0 -10 -15 -10
-34 0 -25 7 -39 22 -50 29 -21 31 -21 62 11 29 28 44 26 27 -5 -12 -22 2 -42
30 -42 26 0 34 -19 13 -34 -10 -8 -14 -18 -10 -25 5 -7 0 -18 -10 -26 -17 -12
-17 -16 -4 -39 10 -20 11 -29 2 -38 -7 -7 -12 -19 -12 -28 0 -9 -9 -25 -20
-35 -11 -10 -20 -24 -20 -31 0 -16 57 -36 66 -23 7 13 61 2 92 -19 26 -17 94
-34 135 -33 17 0 27 -5 27 -14 0 -23 20 -28 36 -9 7 11 13 33 11 49 -1 17 3
29 9 28 6 -1 22 16 35 38 19 31 29 39 49 37 21 -3 27 -11 37 -52 18 -72 47
-126 63 -116 19 12 40 1 40 -21 0 -21 -20 -25 -38 -7 -9 9 -12 8 -12 -4 0 -21
17 -32 50 -32 21 0 26 5 28 32 2 18 11 36 21 41 9 5 80 8 156 6 97 -3 135 -1
123 6 -21 12 -24 39 -4 39 18 0 39 -27 31 -40 -13 -21 38 -9 113 26 88 41 164
69 237 88 71 18 95 33 111 72 16 38 33 44 41 14 3 -11 14 -20 25 -20 21 0 21
1 -24 67 -21 32 -28 53 -28 92 0 42 -5 54 -32 81 -31 31 -31 33 -34 140 -3
106 -12 177 -39 295 -8 33 -19 141 -25 241 -6 99 -16 210 -21 245 -6 35 -14
159 -18 274 -5 128 -12 219 -19 232 -7 12 -19 57 -26 100 -32 177 -99 270
-251 343 -133 64 -463 118 -560 91z m-121 -159 c-17 -26 -74 -56 -85 -45 -6 6
5 23 32 47 30 28 44 35 52 27 8 -8 9 -16 1 -29z m706 -3 c0 -5 -4 -9 -10 -9
-5 0 -10 7 -10 16 0 8 5 12 10 9 6 -3 10 -10 10 -16z m-550 -39 c0 -5 -9 -10
-19 -10 -11 0 -23 5 -26 10 -4 6 5 10 19 10 14 0 26 -4 26 -10z m665 -70 c-3
-5 -11 -10 -16 -10 -6 0 -7 5 -4 10 3 6 11 10 16 10 6 0 7 -4 4 -10z m-720
-10 c8 -12 -81 -12 -110 0 -14 6 -2 9 42 9 34 1 65 -3 68 -9z m290 -290 c4 -6
-25 -10 -82 -9 -59 1 -80 4 -63 9 36 12 138 12 145 0z m433 -89 c23 -101 48
-321 39 -343 -3 -7 -6 8 -6 34 -1 26 -5 49 -10 52 -5 3 -11 29 -14 58 -3 29
-15 103 -26 163 -23 123 -24 135 -13 135 4 0 18 -44 30 -99z m-340 -13 c13
-17 10 -140 -4 -145 -13 -4 -37 45 -28 59 4 5 6 30 6 54 -1 44 7 54 26 32z
m177 -105 c4 -10 9 -42 12 -72 3 -47 1 -52 -12 -41 -18 15 -20 60 -3 60 6 0 4
7 -5 18 -18 20 -23 52 -8 52 5 0 12 -8 16 -17z m-155 -150 c7 -38 6 -61 -1
-69 -6 -8 -10 -35 -9 -61 4 -87 1 -113 -15 -113 -12 0 -15 20 -15 118 0 64 -1
133 -3 152 -3 43 12 70 25 46 5 -9 13 -42 18 -73z m167 -10 c11 -30 11 -108 0
-119 -3 -3 1 -17 10 -31 18 -27 6 -50 -20 -40 -12 4 -15 25 -15 94 0 48 -1 93
-2 98 -8 35 15 33 27 -2z m-427 -27 c0 -8 -4 -17 -9 -21 -12 -7 -24 12 -16 25
9 15 25 12 25 -4z m630 -96 c0 -5 -4 -10 -10 -10 -5 0 -10 5 -10 10 0 6 5 10
10 10 6 0 10 -4 10 -10z m-90 -55 c0 -8 -7 -15 -15 -15 -8 0 -15 7 -15 15 0 8
7 15 15 15 8 0 15 -7 15 -15z m100 -25 c0 -5 -4 -10 -10 -10 -5 0 -10 5 -10
10 0 6 5 10 10 10 6 0 10 -4 10 -10z m-198 -55 c4 -28 5 -56 2 -64 -8 -23 -25
2 -28 40 -2 19 -6 45 -10 57 -7 20 -5 23 10 20 14 -2 21 -16 26 -53z m-196
-33 c5 -25 3 -32 -9 -32 -9 0 -17 12 -20 33 -9 60 17 60 29 -1z m384 28 c0 -5
-4 -10 -10 -10 -5 0 -10 5 -10 10 0 6 5 10 10 10 6 0 10 -4 10 -10z m-100 -21
c0 -18 -2 -19 -15 -9 -8 7 -15 16 -15 21 0 5 7 9 15 9 9 0 15 -9 15 -21z
m-275 -69 c10 8 11 1 4 -36 -5 -28 -5 -53 1 -64 14 -25 -4 -35 -25 -13 -12 11
-15 25 -11 46 4 19 1 39 -8 52 -18 27 -10 40 11 19 11 -10 19 -12 28 -4z m378
5 c8 -18 -11 -31 -25 -17 -11 11 -3 32 12 32 4 0 10 -7 13 -15z m-187 -58 c1
-26 -2 -62 -6 -80 l-7 -32 -10 45 c-11 54 -6 123 11 117 6 -2 12 -25 12 -50z
m164 -77 c0 -11 -7 -20 -15 -20 -15 0 -21 21 -8 33 12 13 23 7 23 -13z m-24
-77 c-10 -10 -19 5 -10 18 6 11 8 11 12 0 2 -7 1 -15 -2 -18z m-611 -239 c0
-106 -3 -194 -7 -194 -5 0 -21 18 -37 41 -25 33 -28 45 -20 65 5 14 16 80 24
147 9 67 18 128 21 136 13 38 19 -18 19 -195z m-209 70 c-3 -9 -6 -25 -6 -37
0 -15 -3 -18 -11 -10 -12 12 -2 63 13 63 6 0 7 -7 4 -16z m276 -35 c-6 -54
-42 -48 -42 6 0 31 2 34 23 26 15 -6 21 -16 19 -32z m333 1 c-3 -5 -11 -10
-16 -10 -6 0 -7 5 -4 10 3 6 11 10 16 10 6 0 7 -4 4 -10z m-845 -85 c13 -16 7
-30 -13 -30 -7 -1 -11 -7 -9 -14 1 -7 -3 -19 -9 -27 -6 -8 -13 -29 -15 -47 -6
-48 -11 -57 -34 -57 -13 0 -20 7 -20 20 0 11 5 20 10 20 6 0 10 13 10 30 0 17
7 33 17 39 10 5 15 13 11 17 -8 8 19 64 31 64 5 0 14 -7 21 -15z m220 -15 c0
-5 -4 -10 -10 -10 -5 0 -10 5 -10 10 0 6 5 10 10 10 6 0 10 -4 10 -10z m-65
-73 c-1 -28 -4 -61 -5 -72 l-1 -20 -9 20 c-5 11 -9 31 -9 45 -1 19 -9 29 -31
37 -35 13 -40 33 -7 33 12 0 29 4 37 9 23 15 29 4 25 -52z m-111 11 c-4 -18
-8 -42 -9 -53 -4 -34 -5 -35 -16 -35 -7 0 -9 11 -5 30 3 17 9 44 12 60 4 17
11 30 16 30 6 0 7 -13 2 -32z m190 23 c9 -15 -23 -36 -36 -23 -5 5 -7 15 -4
21 9 13 33 14 40 2z m821 -62 c4 -11 4 -23 1 -27 -10 -9 -39 25 -32 37 11 17
24 13 31 -10z m-845 -9 c0 -5 -2 -10 -4 -10 -3 0 -8 5 -11 10 -3 6 -1 10 4 10
6 0 11 -4 11 -10z m10 -34 c0 -16 -14 -36 -26 -36 -14 0 -19 22 -7 33 7 8 33
10 33 3z m844 -12 c20 -8 21 -40 2 -47 -17 -7 -51 28 -41 42 7 12 17 14 39 5z
m-79 -44 c-3 -5 1 -23 9 -39 16 -31 20 -131 5 -131 -5 0 -9 7 -9 16 0 9 -8 23
-17 29 -17 13 -17 14 0 32 24 28 21 40 -15 59 l-31 16 23 18 c24 18 46 18 35
0z m295 -44 c0 -42 -10 -50 -43 -35 -17 8 -24 17 -20 28 10 27 25 41 44 41 15
0 19 -7 19 -34z m-1070 -31 c0 -8 -6 -15 -14 -15 -17 0 -28 14 -19 24 12 12
33 6 33 -9z m525 6 c7 -12 -12 -24 -25 -16 -11 7 -4 25 10 25 5 0 11 -4 15 -9z
m-565 -61 c7 -4 3 -13 -10 -25 -19 -18 -20 -18 -20 1 0 11 -5 25 -11 31 -8 8
-7 17 2 34 l12 24 8 -29 c5 -16 13 -32 19 -36z m150 25 c0 -29 -12 -32 -34 -9
-19 19 -12 34 15 34 14 0 19 -7 19 -25z m836 -11 c-6 -17 -8 -17 -24 0 -15 15
-15 18 -2 26 19 12 35 -3 26 -26z m57 -4 c4 -17 3 -19 -9 -9 -8 6 -14 18 -14
26 0 20 16 8 23 -17z m-398 10 c3 -6 -1 -13 -10 -16 -19 -8 -30 0 -20 15 8 14
22 14 30 1z m273 -8 c2 -7 -3 -12 -12 -12 -9 0 -16 7 -16 16 0 17 22 14 28 -4z
m-362 -45 c3 -42 1 -47 -18 -47 -14 0 -18 5 -14 16 3 9 6 31 6 51 0 53 23 35
26 -20z m534 27 c0 -8 -4 -12 -10 -9 -5 3 -10 10 -10 16 0 5 5 9 10 9 6 0 10
-7 10 -16z m-1192 -18 c6 -27 -14 -42 -32 -27 -12 10 -13 18 -5 33 12 22 32
19 37 -6z m252 -1 c0 -8 -4 -15 -10 -15 -5 0 -10 7 -10 15 0 8 5 15 10 15 6 0
10 -7 10 -15z m830 -5 c0 -5 -4 -10 -10 -10 -5 0 -10 5 -10 10 0 6 5 10 10 10
6 0 10 -4 10 -10z m180 -12 c-1 -23 -21 -58 -34 -58 -6 0 -1 33 10 68 6 21 24
13 24 -10z m-70 -14 c0 -8 -5 -12 -10 -9 -6 4 -8 11 -5 16 9 14 15 11 15 -7z
m-1080 -43 c0 -8 -7 -23 -16 -33 -14 -14 -14 -20 -4 -33 7 -8 9 -15 5 -15 -29
0 -50 113 -22 123 14 4 36 -21 37 -42z m980 14 c0 -8 -7 -15 -15 -15 -16 0
-20 12 -8 23 11 12 23 8 23 -8z m-147 -1 c9 -9 -12 -46 -23 -39 -4 3 -6 14 -3
25 5 20 15 25 26 14z m70 -5 c-8 -8 -16 -8 -30 0 -16 9 -14 10 12 11 21 0 26
-3 18 -11z m-1033 -20 c0 -24 -23 -21 -28 4 -2 10 3 17 12 17 10 0 16 -9 16
-21z m495 -5 c0 -13 -8 -20 -27 -22 -22 -3 -28 1 -28 17 0 18 22 31 45 26 6
-1 10 -10 10 -21z m-265 6 c0 -5 -4 -10 -10 -10 -5 0 -10 5 -10 10 0 6 5 10
10 10 6 0 10 -4 10 -10z m65 0 c4 -6 -5 -10 -19 -10 -14 0 -26 5 -26 10 0 6 9
10 19 10 11 0 23 -4 26 -10z m288 -5 c4 -8 2 -17 -3 -20 -6 -4 -10 3 -10 14 0
25 6 27 13 6z m127 5 c0 -5 -16 -10 -35 -10 -19 0 -35 5 -35 10 0 6 16 10 35
10 19 0 35 -4 35 -10z m475 0 c3 -5 -1 -10 -10 -10 -9 0 -13 5 -10 10 3 6 8
10 10 10 2 0 7 -4 10 -10z m-340 -39 c-10 -16 -25 -3 -25 22 0 20 1 20 16 5 9
-9 13 -21 9 -27z m-77 -12 c3 -28 -12 -54 -25 -46 -13 8 -3 79 11 74 6 -2 12
-14 14 -28z m-543 12 c3 -6 -5 -19 -17 -30 -27 -26 -45 -13 -26 18 14 22 33
27 43 12z m418 -17 c-4 -12 -8 -13 -14 -3 -9 15 -2 32 11 24 5 -3 6 -13 3 -21z
m64 -8 c-8 -19 -37 -21 -37 -3 0 7 5 18 12 25 15 15 33 -1 25 -22z m229 -14
c-4 -4 -14 2 -22 12 -11 16 -11 21 -1 28 14 9 35 -27 23 -40z m-347 24 c11
-14 5 -46 -9 -46 -15 0 -32 30 -26 45 7 19 20 19 35 1z m-109 -11 c0 -8 -9
-15 -20 -15 -11 0 -20 7 -20 15 0 8 9 15 20 15 11 0 20 -7 20 -15z m-13 -51
c-9 -9 -28 6 -21 18 4 6 10 6 17 -1 6 -6 8 -13 4 -17z"/>
<path d="M1290 2210 c-12 -7 -13 -13 -4 -27 9 -15 24 -18 75 -16 73 1 86 18
29 39 -43 15 -80 17 -100 4z"/>
<path d="M1294 2078 c-10 -16 17 -48 41 -48 14 0 30 -9 37 -20 17 -27 33 -25
66 5 23 22 25 27 12 35 -8 5 -25 10 -37 10 -12 0 -24 4 -27 9 -7 11 -86 19
-92 9z"/>
<path d="M6460 2070 c-24 -15 -7 -19 20 -5 15 8 19 14 10 14 -8 1 -22 -3 -30
-9z"/>
<path d="M7486 2036 c-35 -22 -36 -25 -17 -31 12 -3 29 -4 39 0 22 6 70 -28
82 -59 8 -18 9 -17 9 12 1 20 -4 32 -12 32 -19 0 -47 33 -47 53 0 22 -7 21
-54 -7z"/>
<path d="M6544 1985 c-3 -13 -2 -30 3 -37 4 -7 11 -83 14 -168 l6 -155 -1 165
c-1 91 -5 172 -9 182 -6 12 -3 17 10 20 17 3 17 4 1 10 -13 6 -19 1 -24 -17z"/>
<path d="M1265 1970 c-10 -11 -26 -20 -35 -20 -13 0 -16 -6 -12 -27 4 -29 27
-53 47 -53 10 0 32 34 40 60 1 3 5 13 9 22 17 38 -19 51 -49 18z"/>
<path d="M1633 1970 c-47 -11 -82 -56 -83 -105 0 -47 19 -79 60 -100 45 -23
94 -19 132 12 46 38 48 42 48 96 0 42 -5 53 -31 78 -32 30 -62 35 -126 19z"/>
<path d="M4335 1967 c-11 -9 -15 -19 -10 -27 5 -9 4 -11 -3 -6 -16 10 -16 -26
0 -42 20 -20 28 -13 28 26 0 21 5 43 12 50 16 16 -4 15 -27 -1z"/>
<path d="M4486 1955 c-9 -26 -7 -32 5 -12 6 10 9 21 6 23 -2 3 -7 -2 -11 -11z"/>
<path d="M5115 1960 c3 -5 11 -10 16 -10 6 0 7 5 4 10 -3 6 -11 10 -16 10 -6
0 -7 -4 -4 -10z"/>
<path d="M5478 1828 c4 -207 9 -218 11 -25 0 92 -2 167 -7 167 -4 0 -6 -64 -4
-142z"/>
<path d="M5777 1917 c-10 -29 -21 -69 -24 -89 -3 -23 -9 -35 -16 -31 -7 4 -8
0 -4 -11 4 -10 7 -25 8 -34 0 -9 7 7 15 36 8 30 11 58 8 63 -3 5 0 8 8 7 8 -2
13 6 12 19 0 14 7 25 18 29 13 4 16 9 10 17 -6 7 -11 20 -13 29 -2 9 -12 -6
-22 -35z"/>
<path d="M6603 1925 c0 -27 2 -38 4 -22 2 15 2 37 0 50 -2 12 -4 0 -4 -28z"/>
<path d="M6091 1944 c0 -11 3 -14 6 -6 3 7 2 16 -1 19 -3 4 -6 -2 -5 -13z"/>
<path d="M7547 1912 c-24 -27 -21 -36 4 -11 11 11 19 23 16 25 -2 2 -11 -4
-20 -14z"/>
<path d="M4242 1895 c0 -16 2 -22 5 -12 2 9 2 23 0 30 -3 6 -5 -1 -5 -18z"/>
<path d="M4642 1900 c0 -14 2 -19 5 -12 2 6 2 18 0 25 -3 6 -5 1 -5 -13z"/>
<path d="M4185 1880 c-3 -5 1 -10 10 -10 9 0 13 5 10 10 -3 6 -8 10 -10 10 -2
0 -7 -4 -10 -10z"/>
<path d="M7222 1855 c0 -16 2 -22 5 -12 2 9 2 23 0 30 -3 6 -5 -1 -5 -18z"/>
<path d="M3900 1860 c0 -5 7 -7 15 -4 8 4 15 8 15 10 0 2 -7 4 -15 4 -8 0 -15
-4 -15 -10z"/>
<path d="M6603 1820 c0 -25 2 -35 4 -22 2 12 2 32 0 45 -2 12 -4 2 -4 -23z"/>
<path d="M7505 1839 c-4 -6 -5 -12 -2 -15 2 -3 7 2 10 11 7 17 1 20 -8 4z"/>
<path d="M4454 1735 c0 -60 1 -84 3 -52 2 32 2 81 0 110 -2 29 -3 3 -3 -58z"/>
<path d="M7604 1810 c3 -14 6 -35 6 -47 0 -13 5 -23 10 -23 15 0 11 42 -6 70
l-15 25 5 -25z"/>
<path d="M1424 1806 c-3 -9 -1 -23 6 -31 7 -8 10 -26 8 -40 -6 -30 7 -33 22
-6 15 30 12 56 -10 76 -18 16 -20 16 -26 1z"/>
<path d="M7470 1795 c-6 -14 -14 -36 -20 -50 -5 -14 -7 -25 -4 -25 3 0 10 13
15 30 6 16 15 28 19 25 5 -3 12 0 16 6 5 8 3 9 -6 4 -9 -5 -10 -2 -5 14 9 30
-3 26 -15 -4z"/>
<path d="M7207 1793 c-4 -3 -7 -11 -7 -17 0 -6 5 -5 12 2 6 6 9 14 7 17 -3 3
-9 2 -12 -2z"/>
<path d="M7066 1781 c-7 -10 52 -24 65 -15 5 3 7 10 4 15 -8 11 -62 12 -69 0z"/>
<path d="M1283 1732 c-18 -9 -33 -21 -33 -28 0 -25 34 -84 51 -89 34 -11 79
-74 79 -110 0 -34 1 -35 39 -35 34 0 42 5 65 40 14 22 37 47 51 56 14 9 25 20
25 25 0 18 -31 21 -49 5 -16 -15 -21 -13 -62 16 -24 18 -52 40 -62 49 -10 9
-31 19 -46 22 -16 3 -31 13 -35 22 -5 13 0 16 27 13 23 -2 32 1 32 12 0 20
-42 22 -82 2z m92 -105 c10 -8 15 -19 11 -25 -10 -17 -33 -15 -40 4 -14 36 -3
44 29 21z m52 -103 c-3 -3 -12 -4 -19 -1 -8 3 -5 6 6 6 11 1 17 -2 13 -5z"/>
<path d="M7558 1733 c7 -3 16 -2 19 1 4 3 -2 6 -13 5 -11 0 -14 -3 -6 -6z"/>
<path d="M7450 1686 c-11 -26 -20 -55 -20 -64 0 -9 11 10 25 42 13 33 22 62
20 64 -3 3 -14 -16 -25 -42z"/>
<path d="M4930 1695 c-28 -52 -9 -115 44 -150 31 -21 96 -32 96 -16 0 6 -15
11 -33 11 -24 0 -40 8 -60 31 -34 39 -41 67 -28 103 20 50 5 66 -19 21z"/>
<path d="M4599 1673 c-10 -31 -9 -41 5 -68 9 -17 25 -36 36 -43 18 -11 18 -9
-2 24 -13 23 -21 52 -20 80 0 24 -1 44 -3 44 -2 0 -9 -17 -16 -37z"/>
<path d="M6385 1631 c-3 -5 -19 -12 -35 -16 -35 -8 -50 -25 -21 -25 18 0 86
49 69 50 -4 0 -9 -4 -13 -9z"/>
<path d="M5639 1603 c-13 -16 -12 -17 4 -4 16 13 21 21 13 21 -2 0 -10 -8 -17
-17z"/>
<path d="M6215 1580 c3 -5 22 -10 41 -10 19 0 34 5 34 10 0 6 -18 10 -41 10
-24 0 -38 -4 -34 -10z"/>
<path d="M851 1538 c-7 -20 -5 -23 16 -26 31 -4 34 -2 26 26 -7 29 -31 28 -42
0z"/>
<path d="M4715 1530 c28 -12 57 -12 50 0 -3 6 -21 10 -38 9 -27 0 -29 -2 -12
-9z"/>
<path d="M6961 1503 c-1 -27 14 -37 36 -24 16 9 16 10 -4 11 -12 0 -24 8 -26
18 -4 13 -5 12 -6 -5z"/>
<path d="M5813 1502 c-36 -2 -63 -8 -63 -14 0 -5 7 -7 16 -4 9 4 23 1 30 -5
15 -12 70 -4 80 12 8 14 7 14 -63 11z"/>
<path d="M5645 1485 c17 -8 44 -14 60 -13 29 0 29 0 -5 7 -19 4 -46 11 -60 14
-20 6 -19 4 5 -8z"/>
<path d="M700 1346 c0 -14 5 -28 10 -31 6 -3 10 -3 10 2 0 4 3 18 6 31 5 16 2
22 -10 22 -10 0 -16 -9 -16 -24z"/>
<path d="M5831 1082 c-37 -18 -60 -46 -48 -58 4 -4 18 3 32 16 14 13 54 30 97
40 l73 18 -60 1 c-39 1 -72 -5 -94 -17z"/>
<path d="M6013 1082 c10 -10 17 -24 17 -30 0 -7 4 -12 9 -12 5 0 12 -8 14 -17
3 -10 5 -3 6 15 1 23 -3 32 -14 32 -9 0 -18 7 -21 15 -4 8 -11 15 -17 15 -5 0
-3 -8 6 -18z"/>
<path d="M4763 1063 c-17 -6 -17 -24 -1 -20 7 1 15 -15 18 -40 4 -24 3 -43 -2
-43 -4 0 -8 -8 -8 -18 0 -10 -3 -21 -6 -25 -4 -3 -7 -58 -8 -121 -1 -90 2
-112 12 -104 8 7 17 7 27 -2 14 -11 15 -7 10 41 -3 30 1 108 9 174 12 103 11
123 0 143 -14 22 -27 25 -51 15z"/>
<path d="M7421 1008 c9 -56 1 -135 -12 -121 -4 4 -9 24 -12 43 -3 26 -4 22 -4
-15 0 -27 2 -63 6 -80 7 -28 8 -27 25 30 19 63 19 166 -1 186 -7 7 -8 -6 -2
-43z"/>
<path d="M1272 980 c0 -14 2 -19 5 -12 2 6 2 18 0 25 -3 6 -5 1 -5 -13z"/>
<path d="M4926 979 c-11 -14 -14 -24 -8 -28 7 -4 6 -38 -4 -105 -8 -54 -13
-101 -10 -103 6 -7 37 134 43 200 3 31 4 57 2 57 -3 0 -13 -10 -23 -21z"/>
<path d="M7356 985 c-3 -9 -5 -40 -5 -68 l2 -52 7 65 c8 67 7 82 -4 55z"/>
<path d="M5880 948 c5 -18 11 -44 13 -58 2 -14 5 1 6 33 1 43 -2 57 -13 57
-11 0 -13 -7 -6 -32z"/>
<path d="M6006 946 c-36 -48 -33 -57 4 -11 17 21 30 39 30 41 0 10 -10 1 -34
-30z"/>
<path d="M7037 963 c-19 -31 -56 -311 -38 -287 3 5 15 11 26 12 27 5 30 9 16
26 -8 10 -10 36 -7 78 l5 63 -13 -55 c-18 -71 -19 -49 -4 43 10 61 13 68 19
42 4 -21 6 -12 5 27 -1 60 -2 63 -9 51z"/>
<path d="M4652 919 c-16 -33 -19 -45 -9 -51 8 -5 6 -8 -6 -8 -13 0 -17 -5 -13
-18 4 -11 -1 -36 -9 -56 -9 -21 -14 -43 -13 -48 2 -6 11 7 20 28 63 152 68
166 60 181 -7 12 -14 5 -30 -28z"/>
<path d="M6750 924 c0 -21 -7 -36 -22 -47 -22 -14 -22 -16 -6 -33 11 -13 17
-42 20 -94 l3 -75 -28 0 c-26 1 -27 0 -10 -13 16 -11 12 -12 -27 -6 -25 4 -56
11 -69 16 -26 10 -37 5 -26 -12 4 -6 16 -8 27 -4 14 4 18 2 14 -5 -10 -15 -32
-14 -67 4 -16 8 -42 22 -58 30 -16 8 -36 15 -44 15 -21 0 -29 -37 -9 -45 11
-4 13 -8 5 -13 -6 -4 31 -7 82 -7 51 0 97 3 101 8 4 4 37 4 72 1 51 -6 63 -4
57 5 -4 7 -7 50 -7 94 0 58 -4 87 -15 99 -12 14 -12 17 0 25 19 11 29 54 17
73 -7 11 -10 7 -10 -16z m-260 -254 c0 -5 -7 -10 -16 -10 -8 0 -12 5 -9 10 3
6 10 10 16 10 5 0 9 -4 9 -10z"/>
<path d="M6784 888 c0 -36 4 -61 8 -55 4 7 27 12 50 12 32 0 43 4 43 15 0 11
-10 14 -42 12 -45 -2 -43 -5 -56 63 -2 11 -4 -10 -3 -47z"/>
<path d="M5921 834 c0 -11 3 -14 6 -6 3 7 2 16 -1 19 -3 4 -6 -2 -5 -13z"/>
<path d="M5972 821 c-19 -11 8 -21 56 -20 l37 1 -35 13 c-43 17 -42 17 -58 6z"/>
<path d="M7342 790 c0 -14 2 -19 5 -12 2 6 2 18 0 25 -3 6 -5 1 -5 -13z"/>
<path d="M6885 757 c-4 -13 -5 -31 -4 -38 5 -23 -21 -88 -39 -100 -13 -8 -10
-9 17 -5 18 3 42 6 53 6 13 0 18 6 16 18 -2 11 -11 16 -27 14 -16 -3 -22 1
-19 10 3 7 11 13 19 12 11 -1 14 12 14 49 0 54 -20 76 -30 34z"/>
<path d="M4315 761 c-3 -5 21 -15 52 -21 32 -7 64 -15 72 -18 8 -3 12 0 9 8
-2 8 -29 19 -59 26 -67 16 -67 16 -74 5z"/>
<path d="M7338 708 c-2 -26 -10 -36 -38 -50 -23 -11 -28 -16 -15 -15 11 0 33
-3 48 -7 25 -6 27 -5 19 10 -5 10 -7 35 -5 56 3 21 3 38 0 38 -3 0 -7 -15 -9
-32z"/>
<path d="M5340 714 c0 -10 28 -34 39 -34 6 0 2 9 -9 20 -20 20 -30 25 -30 14z"/>
<path d="M6781 704 c0 -11 3 -14 6 -6 3 7 2 16 -1 19 -3 4 -6 -2 -5 -13z"/>
<path d="M5228 702 c-12 -2 -18 -13 -18 -32 0 -27 -1 -28 -42 -23 -24 3 -40 2
-35 -2 11 -13 77 -16 97 -5 11 6 51 6 99 2 56 -6 80 -5 78 2 -2 6 -17 13 -33
14 -16 2 -34 8 -41 14 -8 6 -19 6 -32 -1 -26 -15 -74 -14 -65 0 3 6 15 9 25 6
23 -6 23 -5 2 13 -10 9 -26 14 -35 12z"/>
<path d="M6171 694 c0 -11 3 -14 6 -6 3 7 2 16 -1 19 -3 4 -6 -2 -5 -13z"/>
<path d="M5020 680 c0 -21 7 -25 27 -12 9 6 7 11 -7 20 -17 11 -20 10 -20 -8z"/>
<path d="M5170 690 c0 -5 5 -10 10 -10 6 0 10 5 10 10 0 6 -4 10 -10 10 -5 0
-10 -4 -10 -10z"/>
<path d="M6307 683 c-2 -5 -7 -21 -11 -37 -7 -28 -7 -29 26 -21 18 4 43 8 56
7 13 0 21 5 19 12 -2 6 -14 10 -26 9 -12 -2 -26 6 -33 17 -13 21 -24 25 -31
13z"/>
<path d="M7166 682 c-4 -7 -4 -16 -1 -22 3 -5 -1 -10 -9 -10 -9 0 -16 5 -16
10 0 6 -11 10 -25 10 -14 0 -25 -5 -25 -10 0 -6 -9 -20 -20 -32 l-20 -22 0 23
c0 20 -4 22 -22 16 -13 -4 -31 -7 -40 -8 -18 -1 -26 -17 -8 -17 5 0 12 -16 16
-34 5 -32 8 -34 26 -23 16 10 22 9 32 -6 12 -16 14 -16 20 -1 3 8 6 28 6 44 0
15 7 34 16 41 14 11 21 10 46 -4 38 -22 64 -22 94 2 l24 19 -39 6 c-22 3 -41
11 -43 18 -3 9 -6 9 -12 0z m-141 -80 c-3 -3 -11 0 -18 7 -9 10 -8 11 6 5 10
-3 15 -9 12 -12z"/>
<path d="M4857 673 c-5 -8 9 -53 16 -53 2 0 2 14 -1 30 -4 31 -8 36 -15 23z"/>
<path d="M4578 653 c-8 -10 -4 -12 18 -8 86 13 152 14 163 2 6 -8 13 -39 17
-69 5 -43 10 -55 21 -51 10 4 13 22 11 69 -1 40 -5 59 -10 49 -7 -12 -12 -11
-29 6 -17 17 -31 20 -100 17 -49 -2 -85 -8 -91 -15z"/>
<path d="M4432 645 c-51 -7 -94 -14 -97 -16 -2 -3 -1 -10 4 -17 5 -9 24 -8 85
3 43 8 79 15 81 15 2 0 5 -10 7 -22 2 -19 5 -16 15 15 6 20 8 37 5 36 -4 -1
-49 -7 -100 -14z"/>
<path d="M5498 653 c7 -3 16 -2 19 1 4 3 -2 6 -13 5 -11 0 -14 -3 -6 -6z"/>
<path d="M5056 641 c-4 -5 3 -7 14 -4 23 6 26 13 6 13 -8 0 -17 -4 -20 -9z"/>
<path d="M6028 643 c-10 -2 -18 -9 -18 -15 0 -5 -7 -7 -16 -4 -8 3 -34 3 -57
-1 -37 -6 -39 -7 -17 -15 14 -5 45 -4 79 3 31 6 67 13 80 16 20 3 22 6 10 14
-15 9 -32 10 -61 2z"/>
<path d="M4998 633 c7 -3 16 -2 19 1 4 3 -2 6 -13 5 -11 0 -14 -3 -6 -6z"/>
<path d="M6136 627 c3 -10 9 -15 12 -12 3 3 0 11 -7 18 -10 9 -11 8 -5 -6z"/>
<path d="M7454 626 c-10 -8 -16 -17 -13 -20 3 -3 14 1 25 8 10 8 16 17 13 20
-3 3 -14 -1 -25 -8z"/>
<path d="M6157 571 c-4 -17 -3 -21 5 -13 5 5 8 16 6 23 -3 8 -7 3 -11 -10z"/>
<path d="M5348 518 c-7 -13 -13 -36 -15 -53 -1 -16 -5 -50 -9 -73 -5 -38 -4
-43 11 -40 24 4 45 39 28 45 -18 6 -16 50 2 57 8 3 15 13 15 21 0 9 5 13 10
10 6 -4 10 5 10 20 0 22 -3 25 -21 20 -15 -5 -19 -4 -15 4 4 6 5 11 2 11 -3 0
-11 -10 -18 -22z m-2 -155 c-10 -10 -19 5 -10 18 6 11 8 11 12 0 2 -7 1 -15
-2 -18z"/>
<path d="M4790 505 c0 -5 5 -17 10 -25 5 -8 10 -10 10 -5 0 6 -5 17 -10 25 -5
8 -10 11 -10 5z"/>
<path d="M5387 464 c-4 -4 -7 -14 -7 -23 0 -11 3 -12 11 -4 6 6 10 16 7 23 -2
6 -7 8 -11 4z"/>
<path d="M4082 425 c0 -16 2 -22 5 -12 2 9 2 23 0 30 -3 6 -5 -1 -5 -18z"/>
<path d="M4415 400 c-4 -6 -12 -10 -18 -9 -7 1 -37 -10 -67 -24 -65 -32 -161
-37 -198 -12 -20 14 -21 14 -16 0 3 -8 13 -15 21 -15 8 0 11 -4 8 -10 -14 -23
122 -15 191 11 42 16 112 69 91 69 -3 0 -9 -5 -12 -10z"/>
<path d="M5675 390 c25 -25 120 -43 195 -38 57 4 185 56 143 57 -13 1 -23 -3
-23 -7 0 -4 -8 -8 -17 -9 -10 0 -44 -6 -77 -13 -63 -12 -135 -7 -201 17 l-40
14 20 -21z"/>
</g>
</svg>
