<svg width="20" height="33" viewBox="0 0 20 33" fill="none" xmlns="http://www.w3.org/2000/svg">
<path fill-rule="evenodd" clip-rule="evenodd" d="M10 3.34467C7.87827 3.34467 5.84344 4.44822 4.34315 6.41255C2.84285 8.37687 2 11.0411 2 13.8191C2 17.8753 4.01574 21.8113 6.22595 24.8659C7.31061 26.365 8.39867 27.5922 9.21668 28.445C9.52111 28.7624 9.78702 29.0268 10 29.2329C10.213 29.0268 10.4789 28.7624 10.7833 28.445C11.6013 27.5922 12.6894 26.365 13.774 24.8659C15.9843 21.8113 18 17.8753 18 13.8191C18 11.0411 17.1571 8.37687 15.6569 6.41255C14.1566 4.44822 12.1217 3.34467 10 3.34467ZM10 30.8399C9.4453 31.9293 9.44505 31.9291 9.44476 31.9289L9.4419 31.9264L9.43524 31.9205L9.41232 31.9002C9.39285 31.8829 9.36508 31.858 9.32956 31.8258C9.25853 31.7614 9.15646 31.6676 9.02779 31.5459C8.77055 31.3026 8.40636 30.9476 7.97082 30.4935C7.10133 29.587 5.93939 28.2774 4.77405 26.6669C2.48426 23.5023 0 18.9279 0 13.8191C5.96046e-08 10.3466 1.05357 7.01633 2.92893 4.56092C4.8043 2.10551 7.34784 0.726074 10 0.726074C12.6522 0.726074 15.1957 2.10551 17.0711 4.56092C18.9464 7.01633 20 10.3466 20 13.8191C20 18.9279 17.5157 23.5023 15.226 26.6669C14.0606 28.2774 12.8987 29.587 12.0292 30.4935C11.5936 30.9476 11.2295 31.3026 10.9722 31.5459C10.8435 31.6676 10.7415 31.7614 10.6704 31.8258C10.6349 31.858 10.6072 31.8829 10.5877 31.9002L10.5648 31.9205L10.5581 31.9264L10.556 31.9282C10.5557 31.9285 10.5547 31.9293 10 30.8399ZM10 30.8399L10.5547 31.9293C10.2188 32.2225 9.78066 32.222 9.44476 31.9289L10 30.8399Z" fill="#730301"/>
<path fill-rule="evenodd" clip-rule="evenodd" d="M15 13.8191C15 17.4346 12.7614 20.3656 10 20.3656C7.23858 20.3656 5 17.4346 5 13.8191C5 10.2035 7.23858 7.27258 10 7.27258C12.7614 7.27258 15 10.2035 15 13.8191ZM13 13.8191C13 15.9884 11.6569 17.747 10 17.747C8.34315 17.747 7 15.9884 7 13.8191C7 11.6498 8.34315 9.89118 10 9.89118C11.6569 9.89118 13 11.6498 13 13.8191Z" fill="#730301"/>
</svg>
