<svg width="14" height="19" viewBox="0 0 14 19" fill="none" xmlns="http://www.w3.org/2000/svg">
<path fill-rule="evenodd" clip-rule="evenodd" d="M13.7071 0.502259C14.0976 1.01357 14.0976 1.84257 13.7071 2.35389L1.70711 18.0655C1.31658 18.5768 0.683417 18.5768 0.292893 18.0655C-0.0976311 17.5541 -0.0976311 16.7251 0.292893 16.2138L12.2929 0.502259C12.6834 -0.00905377 13.3166 -0.00905377 13.7071 0.502259Z" fill="#730301"/>
<path fill-rule="evenodd" clip-rule="evenodd" d="M0.292893 0.502259C0.683417 -0.00905377 1.31658 -0.00905377 1.70711 0.502259L13.7071 16.2138C14.0976 16.7251 14.0976 17.5541 13.7071 18.0655C13.3166 18.5768 12.6834 18.5768 12.2929 18.0655L0.292893 2.35389C-0.0976311 1.84257 -0.0976311 1.01357 0.292893 0.502259Z" fill="#730301"/>
</svg>

