<svg width="24" height="33" viewBox="0 0 24 33" fill="none" xmlns="http://www.w3.org/2000/svg">
<path d="M22 22.8795V26.8074C22.0011 27.172 21.9441 27.5329 21.8325 27.867C21.7209 28.2011 21.5573 28.501 21.3521 28.7476C21.1469 28.9941 20.9046 29.1817 20.6407 29.2986C20.3769 29.4154 20.0974 29.4588 19.82 29.4259C16.7428 28.9882 13.787 27.6114 11.19 25.4064C8.77383 23.3962 6.72533 20.7141 5.19 17.5506C3.49998 14.1349 2.44824 10.246 2.12 6.199C2.09501 5.83694 2.12787 5.47203 2.2165 5.1275C2.30512 4.78298 2.44757 4.46639 2.63476 4.1979C2.82196 3.9294 3.0498 3.71488 3.30379 3.568C3.55777 3.42111 3.83234 3.34507 4.11 3.34473H7.11C7.5953 3.33848 8.06579 3.56349 8.43376 3.97782C8.80173 4.39215 9.04208 4.96754 9.11 5.59672C9.23662 6.85374 9.47145 8.08796 9.81 9.27585C9.94454 9.74448 9.97366 10.2538 9.8939 10.7434C9.81415 11.233 9.62886 11.6825 9.36 12.0385L8.09 13.7013C9.51355 16.9792 11.5865 19.6932 14.09 21.5571L15.36 19.8943C15.6319 19.5422 15.9752 19.2996 16.3491 19.1952C16.7231 19.0908 17.1121 19.1289 17.47 19.3051C18.3773 19.7483 19.3199 20.0558 20.28 20.2216C20.7658 20.3113 21.2094 20.6317 21.5265 21.1217C21.8437 21.6118 22.0122 22.2373 22 22.8795Z" stroke="#730301" stroke-width="2" stroke-linecap="round" stroke-linejoin="round"/>
</svg>
