<svg width="31" height="27" viewBox="0 0 31 27" fill="none" xmlns="http://www.w3.org/2000/svg">
<path d="M4.26577 16.2436L4.16723 15.9286H4.23104C4.24497 15.9286 4.25714 15.9306 4.26693 15.9335C4.27146 15.9349 4.27521 15.9364 4.2782 15.9377C4.54191 16.9469 5.00153 17.8728 5.59205 18.7377L3.65102 20.4298C3.35748 20.6376 3.37089 20.9806 3.37152 20.9967L3.37154 20.9973V20.9981C3.37154 21.0264 3.37153 21.1171 3.40913 21.2263C3.44798 21.3392 3.51844 21.4492 3.62595 21.543L5.71693 23.3658C5.6984 23.3643 5.68029 23.3572 5.66576 23.3445L3.50875 21.4642L3.499 21.4557L3.48883 21.4477C3.3371 21.3286 3.26539 21.1623 3.26539 20.9973C3.26539 20.8552 3.3468 20.6716 3.50875 20.5305L5.19564 19.0599L5.52295 18.7746L5.2863 18.4105C4.84129 17.7259 4.50118 16.996 4.26577 16.2436ZM0.853646 15.7392C0.87941 15.7616 0.906157 15.7818 0.933655 15.7999C0.652399 15.6691 0.5 15.4206 0.5 15.1875V11.8125C0.5 11.5794 0.652398 11.3309 0.933652 11.2001C0.906155 11.2182 0.879409 11.2384 0.853646 11.2608C0.690116 11.4034 0.606155 11.6041 0.606155 11.8125V15.1875C0.606155 15.3959 0.690116 15.5966 0.853646 15.7392ZM4.20339 11.0714H4.14249L4.23936 10.7524C4.47333 9.98188 4.81169 9.27705 5.25864 8.58947L5.4953 8.2254L5.16799 7.94007L3.4811 6.46953L3.47135 6.46103L3.46118 6.45305C3.30944 6.334 3.23773 6.16767 3.23773 6.00268C3.23773 5.86061 3.31915 5.677 3.4811 5.53582L6.21355 3.15382C6.27676 3.10213 6.34638 3.05935 6.42021 3.02547C6.40086 3.03947 6.38199 3.05446 6.36368 3.07042L3.65129 5.43494C3.53229 5.51882 3.4517 5.63188 3.40913 5.7556C3.37029 5.86844 3.37127 5.97281 3.37152 5.99879C3.37153 6.00039 3.37154 6.00169 3.37154 6.00268V6.00318C3.37154 6.05644 3.37153 6.26837 3.52968 6.47516L3.5603 6.5152L3.59829 6.54832L5.5644 8.26227C4.96713 9.13814 4.53818 10.0646 4.25104 11.062C4.24797 11.0635 4.24406 11.065 4.23927 11.0665C4.22948 11.0694 4.21732 11.0714 4.20339 11.0714ZM7.40329 3.06639C7.44786 3.09197 7.49043 3.12111 7.53043 3.15382L9.21203 4.61975L9.45307 4.82987C9.43239 4.82722 9.4135 4.81876 9.39903 4.80614L7.40795 3.07043C7.4064 3.06907 7.40485 3.06773 7.40329 3.06639ZM9.5226 4.8163C9.509 4.8237 9.495 4.82808 9.48125 4.82985L9.76204 4.69114C9.86578 4.63989 9.97047 4.5902 10.076 4.54207C9.89188 4.62804 9.70995 4.71822 9.53008 4.8123L9.53005 4.81224L9.5226 4.8163ZM12.7628 3.65578C12.731 3.66201 12.6993 3.66837 12.6677 3.67487V3.30268V1.20536C12.6677 0.972283 12.8201 0.723802 13.1014 0.592994C13.0739 0.611043 13.0471 0.631225 13.0214 0.653684C12.8578 0.796241 12.7739 0.99698 12.7739 1.20536V3.65312C12.7711 3.65398 12.7678 3.65481 12.764 3.65555L12.7628 3.65578ZM17.951 0.653685C17.9252 0.631226 17.8985 0.611044 17.871 0.592996C18.1522 0.723804 18.3046 0.972283 18.3046 1.20536V3.30268V3.65255C18.2764 3.64622 18.2481 3.63996 18.2198 3.63379L18.2198 3.63366L18.2084 3.63145C18.2046 3.63071 18.2013 3.62987 18.1985 3.62901V1.20536C18.1985 0.996982 18.1145 0.796243 17.951 0.653685ZM27.3464 5.43292L24.6133 3.05034C24.6635 3.07877 24.7105 3.11176 24.7535 3.14922L27.4912 5.53582L27.501 5.54432L27.5112 5.55231C27.6629 5.67135 27.7346 5.83769 27.7346 6.00268C27.7346 6.14475 27.6532 6.32835 27.4912 6.46953L27.8198 6.84643L27.4912 6.46953L25.8044 7.94007L25.477 8.2254L25.7137 8.58947C26.1587 9.27405 26.4988 10.004 26.7342 10.7564L26.8252 11.0473H26.7413C26.7274 11.0473 26.7152 11.0453 26.7054 11.0423C26.7009 11.041 26.6971 11.0395 26.6941 11.0382C26.4304 10.029 25.9708 9.10307 25.3803 8.23816L27.3211 6.5463C27.4401 6.46243 27.5206 6.34937 27.5632 6.22565C27.602 6.11281 27.6011 6.00845 27.6008 5.98246C27.6008 5.98086 27.6008 5.97956 27.6008 5.97857V5.97776C27.6008 5.94954 27.6008 5.85883 27.5632 5.74957C27.5244 5.63667 27.4539 5.52664 27.3464 5.43293L27.0178 5.80982L27.3464 5.43292ZM30.1187 11.2367C30.1077 11.2271 30.0965 11.2179 30.0851 11.2091C30.3544 11.3421 30.5 11.5847 30.5 11.8125V15.1634C30.5 15.4195 30.316 15.6942 29.9792 15.811C30.0278 15.7852 30.0747 15.7534 30.1187 15.7151C30.2822 15.5725 30.3662 15.3718 30.3662 15.1634V11.7884C30.3662 11.58 30.2822 11.3793 30.1187 11.2367ZM26.769 15.9045H26.8299L26.733 16.2235C26.499 16.994 26.1607 17.6988 25.7137 18.3864L25.477 18.7505L25.8044 19.0358L27.4912 20.5064L27.501 20.5149L27.5112 20.5228C27.6629 20.6419 27.7346 20.8082 27.7346 20.9732C27.7346 21.1153 27.6532 21.2989 27.4912 21.4401L25.3342 23.3204C25.32 23.3328 25.3024 23.3402 25.283 23.3417L27.3487 21.541C27.4677 21.4571 27.5483 21.344 27.5909 21.2203C27.6297 21.1074 27.6287 21.0031 27.6285 20.9771C27.6285 20.9755 27.6285 20.9742 27.6285 20.9732V20.9724C27.6285 20.9442 27.6285 20.8535 27.5909 20.7442C27.552 20.6313 27.4816 20.5213 27.3741 20.4276L25.4079 18.7136C26.0052 17.8377 26.4342 16.9113 26.7213 15.9139C26.7244 15.9124 26.7283 15.9109 26.7331 15.9094C26.7429 15.9065 26.755 15.9045 26.769 15.9045Z" fill="#730301" stroke="#730301"/>
<path d="M20.134 12.5354C20.134 11.0237 19.2389 9.74686 17.9296 9.03267C19.3305 9.75592 20.2402 11.0783 20.2402 12.5354C20.2402 13.9926 19.3305 15.3149 17.9296 16.0382C19.2389 15.324 20.134 14.0472 20.134 12.5354ZM10.8378 12.5354C10.8378 14.0472 11.733 15.324 13.0423 16.0382C11.6414 15.315 10.7317 13.9926 10.7317 12.5354C10.7317 11.0783 11.6414 9.75592 13.0423 9.03267C11.733 9.74686 10.8378 11.0237 10.8378 12.5354Z" fill="#730301" stroke="#730301"/>
<path d="M7.68994 25.3122V23.3836C7.68994 21.6707 8.76994 20.1137 10.4146 19.2615C8.86138 20.1046 7.7961 21.6156 7.7961 23.3836V25.3122C7.7961 25.7764 8.04632 26.1355 8.39858 26.3412C7.95423 26.1266 7.68994 25.7232 7.68994 25.3122ZM23.1761 23.3836C23.1761 21.6156 22.1108 20.1046 20.5576 19.2614C22.2023 20.1137 23.2823 21.6707 23.2823 23.3836V25.3122C23.2823 25.7232 23.018 26.1266 22.5736 26.3412C22.9259 26.1355 23.1761 25.7764 23.1761 25.3122V23.3836Z" fill="#730301" stroke="#730301"/>
<path d="M20.4105 23.2812C20.3988 22.3356 19.839 21.5505 19.0382 21.1068C19.9291 21.5592 20.504 22.3886 20.5166 23.2815C20.506 23.2874 20.4883 23.2937 20.4638 23.2937C20.4389 23.2937 20.4211 23.2872 20.4105 23.2812Z" fill="#730301" stroke="#730301"/>
</svg>
