<svg width="32" height="28" viewBox="0 0 32 28" fill="none" xmlns="http://www.w3.org/2000/svg">
<path d="M14.593 2.00843C15.0873 0.729269 16.8971 0.729269 17.3914 2.00843L19.9708 8.68424C20.3432 9.64783 21.2698 10.2832 22.3028 10.2832H29.8057C31.3207 10.2832 31.8806 12.2733 30.5877 13.0632L25.148 16.3866C24.1169 17.0166 23.6839 18.2939 24.1194 19.421L26.3305 25.1434C26.8473 26.4809 25.3729 27.7116 24.1493 26.9641L17.2956 22.7768C16.4954 22.2879 15.489 22.2879 14.6888 22.7768L7.83505 26.9641C6.61151 27.7116 5.13706 26.4809 5.65384 25.1434L7.86493 19.421C8.30045 18.2939 7.86747 17.0166 6.83634 16.3866L1.39663 13.0632C0.103813 12.2733 0.66365 10.2832 2.17867 10.2832H9.68156C10.7146 10.2832 11.6412 9.64783 12.0135 8.68424L14.593 2.00843Z" fill="#F9F9F9" stroke="#730301"/>
</svg>
