<svg width="20" height="27" viewBox="0 0 20 27" fill="none" xmlns="http://www.w3.org/2000/svg">
<path d="M14.6 16.0562C14.4 15.9253 13.1 15.1397 12.9 15.0088C12.7 14.8778 12.5 14.8778 12.3 15.1397C12.1 15.4015 11.7 16.1871 11.5 16.449C11.4 16.7108 11.2 16.7108 11 16.5799C10.3 16.1871 9.6 15.6634 9 15.0088C8.5 14.3541 8 13.5685 7.6 12.783C7.5 12.5211 7.6 12.2592 7.7 12.1283C7.8 11.9974 7.9 11.7355 8.1 11.6046C8.2 11.4737 8.3 11.2118 8.3 11.0809C8.4 10.9499 8.4 10.6881 8.3 10.5571C8.2 10.4262 7.7 8.85506 7.5 8.20041C7.4 7.2839 7.2 7.2839 7 7.2839C6.9 7.2839 6.7 7.2839 6.5 7.2839C6.3 7.2839 6 7.54576 5.9 7.67669C5.3 8.46227 5 9.37878 5 10.4262C5.1 11.6046 5.4 12.783 6 13.8304C7.1 15.9253 8.5 17.6274 10.2 18.6748C10.7 18.9367 11.1 19.1985 11.6 19.3294C12.1 19.5913 12.6 19.5913 13.2 19.4604C13.9 19.3294 14.5 18.6748 14.9 17.8892C15.1 17.3655 15.1 16.8418 15 16.3181C15 16.3181 14.8 16.1871 14.6 16.0562ZM17.1 4.14159C13.2 -0.964676 6.9 -0.964676 3 4.14159C-0.2 8.33134 -0.8 14.7469 1.4 19.8532L0 26.5306L5.3 24.6976C6.8 25.745 8.4 26.2687 10 26.2687C15.5 26.2687 19.9 20.5078 19.9 13.3067C20 9.9025 18.9 6.62925 17.1 4.14159ZM14.4 22.4718C13.1 23.5192 11.6 24.1738 10 24.1738C8.5 24.1738 7.1 23.6501 5.8 22.7336L5.5 22.4718L2.4 23.5192L3.2 19.5913L3 19.1985C0.6 13.9613 1.8 7.41483 5.7 4.14159C9.6 0.868341 14.6 2.57043 17 7.54576C19.4 12.652 18.3 19.3294 14.4 22.4718Z" fill="#730301"/>
</svg>
