<svg width="60" height="75" viewBox="0 0 60 75" fill="none" xmlns="http://www.w3.org/2000/svg">
<path d="M27.6358 0.327324C27.547 0.505867 27.5217 0.937332 27.5597 1.3688C27.5978 1.75563 27.5978 2.08295 27.547 2.08295C27.4963 2.08295 27.1159 1.74075 26.6974 1.32417C25.9872 0.610016 25.9238 0.565376 25.4292 0.654648C24.7317 0.788551 24.7443 0.803429 24.1102 0.520744C23.6283 0.312447 23.4127 0.297569 22.6518 0.461227C20.7495 0.818306 19.9125 1.66637 19.9125 3.19881C19.9125 3.57077 19.8618 3.71955 19.7096 3.71955C19.5955 3.71955 19.4433 3.91296 19.3672 4.16589C19.2404 4.55273 19.1643 4.61224 18.7331 4.61224C18.4414 4.61224 18.1117 4.73127 17.8834 4.92468C17.5537 5.22224 17.4776 5.23712 17.1098 5.05859C16.7547 4.88005 16.6913 4.88005 16.5391 5.13298C16.4377 5.28176 16.3616 5.49005 16.3616 5.57932C16.3616 5.65372 16.2348 5.8025 16.0826 5.87688C15.8416 5.99591 15.7782 6.15957 15.7529 6.72495C15.7275 7.12666 15.6641 7.43909 15.6134 7.43909C15.4231 7.43909 15.0934 6.72495 15.0934 6.33811C15.0934 6.11494 15.0046 5.9364 14.8778 5.90664C14.5734 5.8025 13.673 5.5942 13.5082 5.5942C13.4321 5.57932 13.394 5.92152 13.4194 6.4125C13.4701 7.24568 13.4574 7.27544 12.8867 7.93008C12.4936 8.40617 12.24 8.58472 12.0751 8.5252C11.7961 8.45081 10.4138 9.29887 10.3123 9.61131C10.2109 9.95351 9.89382 9.84936 9.767 9.43277C9.67823 9.15009 9.56409 9.06081 9.3485 9.10545C9.12022 9.13521 9.05681 9.26911 8.9934 9.78985C8.95536 10.1916 8.80317 10.5635 8.56222 10.8611C8.14371 11.3818 7.92812 11.4264 7.75057 11.0247C7.53498 10.5784 6.90089 10.3403 6.41897 10.5338C6.1907 10.6379 5.78488 10.7123 5.50588 10.7123C4.75764 10.7123 4.56741 10.9652 4.31378 12.2596C4.21232 12.7952 4.225 13.063 4.3645 13.4648C4.52937 13.9111 4.52937 13.9855 4.3645 14.1491C4.25037 14.2533 4.0855 14.536 3.98405 14.7592C3.81918 15.1311 3.74309 15.1757 3.43872 15.1013C3.13436 15.027 3.07095 15.0716 3.00754 15.3394C2.95681 15.5328 2.98217 15.7709 3.05827 15.8601C3.14704 15.994 3.13436 16.1726 3.00754 16.4701C2.85536 16.7975 2.72854 16.8867 2.41149 16.8867C1.82812 16.8867 1.66326 17.2438 1.94226 17.9282C2.37344 18.9846 2.13249 20.2492 1.46035 20.4426C1.23207 20.517 1.1433 20.6509 1.11793 21.0229C1.07989 21.4543 1.04184 21.499 0.661385 21.499C0.001925 21.499 -0.175622 22.1238 0.179472 23.1356C0.395064 23.7456 0.940387 24.1026 1.65057 24.1026C1.92958 24.1026 2.15785 24.1324 2.15785 24.177C2.15785 24.2217 1.87885 24.6531 1.53644 25.1441C0.889659 26.0963 0.76284 26.5427 0.76284 27.9412C0.76284 28.5512 0.864295 28.9678 1.21939 29.801C1.47303 30.3812 1.76471 30.9317 1.85348 30.9912C1.9803 31.0805 2.00567 31.2888 1.94226 31.7649C1.89153 32.2708 1.92958 32.5237 2.13249 32.9105C2.56367 33.7288 3.12168 34.2496 3.76845 34.443C4.32646 34.6066 4.37719 34.6661 4.33914 35.0232C4.31378 35.2315 4.35182 35.4101 4.40255 35.4101C4.46596 35.4101 4.61814 35.4993 4.74496 35.6035C5.02396 35.8415 4.90983 36.5557 4.55473 36.6747C4.09818 36.8532 4.28841 37.3145 5.03664 37.8947C5.62001 38.3559 5.86097 38.4601 6.39361 38.4601C7.01502 38.4601 7.02771 38.475 7.11648 38.9808C7.2433 39.6503 7.9408 40.4091 8.65099 40.6025C8.95536 40.6918 9.42459 40.8406 9.70359 40.9447L10.2109 41.1382V42.016C10.2109 42.6706 10.2616 42.9235 10.4265 43.0574C10.7562 43.2955 10.9464 42.983 10.9591 42.1499C10.9718 41.5994 11.0225 41.4357 11.2001 41.3911C11.3269 41.3613 11.441 41.4506 11.4917 41.6143C11.7581 42.5813 12.0624 43.1318 12.8233 43.9352L13.673 44.8577L13.7238 46.1223C13.7745 47.6994 14.0535 48.3838 14.9032 49.0682C15.2836 49.3658 15.6007 49.7824 15.7655 50.1841C15.905 50.5263 16.4884 51.3446 17.0718 52.0141C17.8581 52.9365 18.2639 53.2936 18.7838 53.5019C19.4053 53.7697 19.9252 54.2458 20.4452 55.0195C20.572 55.198 20.8003 55.3468 20.9651 55.3468C21.409 55.3468 21.6753 55.6444 21.8529 56.3734C21.9797 56.909 22.0811 57.0429 22.4489 57.1917C22.8167 57.3256 22.9689 57.519 23.3113 58.3224C23.6917 59.23 23.7298 59.4086 23.8059 61.4022C23.8693 63.0686 23.8312 63.872 23.6537 65.2259C23.5269 66.1781 23.4508 66.9815 23.4761 67.0113C23.5015 67.0559 23.8946 66.9815 24.3512 66.8625C25.5053 66.5501 28.7265 66.431 30.0834 66.6393C34.2811 67.294 38.4535 70.0464 41.0152 73.8404C41.2816 74.2272 41.5225 74.5248 41.5606 74.495C41.5859 74.4504 41.662 73.5577 41.7381 72.5162C41.8142 71.4599 41.9791 69.734 42.1059 68.6628C42.3215 67.0411 42.4356 66.5352 42.8668 65.5086C43.4882 64.0357 44.4267 62.7859 45.3017 62.28C46.1007 61.8188 47.0011 61.7742 49.5882 62.1164C50.5267 62.2503 51.8202 62.3842 52.467 62.4437C54.94 62.6371 56.652 61.7593 57.2988 59.959C57.4383 59.5722 57.4637 59.111 57.3876 57.9505C57.3115 56.5668 57.3242 56.4329 57.5778 56.061C57.73 55.8378 58.0724 55.5849 58.3387 55.4956C58.9094 55.3171 59.2265 54.7814 59.2265 54.0078C59.2265 53.3829 58.9348 52.6092 58.5797 52.3117C58.326 52.1034 58.3007 52.029 58.4402 51.8058C58.9475 50.9726 59.0996 50.6155 59.0996 50.1841C59.0996 49.4402 58.8967 48.9938 58.4275 48.726C58.1358 48.5772 57.8695 48.235 57.6539 47.7738C57.21 46.8067 57.2227 46.6282 57.7807 46.4943C58.4148 46.3604 58.7826 46.048 59.0236 45.4528C59.2772 44.8279 59.2772 44.0394 59.0362 43.3401C58.7699 42.5813 58.605 42.4028 57.0071 40.9894C55.4346 39.5908 54.3059 38.2964 53.9127 37.4335C53.6845 36.8979 53.6718 36.6747 53.7352 34.6066L53.7986 32.36L53.3421 30.6193C52.467 27.2419 51.4271 25.1144 49.6389 22.9421C48.5737 21.6626 48.5737 21.6626 48.5737 20.889C48.5737 19.9814 48.4088 19.7731 47.4196 19.4755C47.0138 19.3565 46.7728 19.1928 46.7221 19.0143C46.6841 18.8507 46.4558 18.6126 46.2021 18.4787C45.8597 18.2853 45.6822 18.0175 45.3524 17.1843C44.8452 15.9197 44.5154 15.5328 44.1477 15.756C43.7926 15.9792 43.7799 15.9792 43.5643 15.4584C43.1585 14.5509 42.9556 14.4318 41.8396 14.4318C40.9899 14.4318 40.7616 14.3723 40.4826 14.1194C40.1782 13.8516 40.0387 13.8218 39.2398 13.9111C38.4789 13.9855 38.3267 13.9706 38.2633 13.7772C38.2125 13.6433 38.035 13.5391 37.8574 13.5391C37.6799 13.5391 37.3628 13.435 37.1599 13.316C36.9443 13.1821 36.6527 13.1226 36.4751 13.1821C36.082 13.2862 35.4098 12.7506 35.1942 12.1257C35.0547 11.7538 35.0547 11.6199 35.2323 11.233C35.4732 10.6825 35.7522 9.19472 35.7649 8.43593C35.7649 7.63251 35.4606 6.99275 35.0674 6.99275C34.7884 6.99275 34.7504 6.93324 34.7504 6.39762C34.7504 5.81738 34.7631 5.8025 35.1816 5.8025C35.7776 5.8025 36.0059 5.4603 35.6888 5.04371C35.562 4.86517 35.2957 4.642 35.1181 4.52297C34.8899 4.38907 34.7504 4.16589 34.6996 3.80882C34.5728 3.0054 34.0909 2.72271 33.1524 2.90125C32.6705 2.97564 32.5564 3.06491 32.3789 3.51125C32.2647 3.79395 32.1125 4.01711 32.0618 4.01711C31.9984 4.01711 31.8082 3.64516 31.6306 3.19881C31.4023 2.61857 31.2121 2.35076 30.9965 2.29124C30.6161 2.17222 30.6161 2.06808 31.0092 1.6366C31.3263 1.29441 31.415 0.833183 31.2248 0.49099C31.0346 0.148788 30.4005 7.62939e-06 29.1069 7.62939e-06C27.8768 7.62939e-06 27.7753 0.0297623 27.6358 0.327324ZM30.1595 0.922455C30.3371 1.19026 29.7283 2.39539 29.4874 2.29124C29.1957 2.15734 29.145 1.68124 29.3606 1.19026C29.5635 0.729034 29.9312 0.610016 30.1595 0.922455ZM24.2751 1.93417C24.3385 2.00856 24.3512 2.17222 24.3005 2.30612C24.2497 2.48466 24.1737 2.51442 23.9834 2.38052C23.5903 2.14246 23.2732 2.20198 22.9816 2.60369C22.4362 3.33272 22.1319 2.96076 22.525 2.05319C22.7279 1.60685 22.7406 1.60685 23.4381 1.69612C23.8312 1.75563 24.2117 1.85978 24.2751 1.93417ZM21.9163 2.57393C21.967 2.8715 21.65 3.05003 21.3583 2.91613C21.168 2.82686 21.168 2.7971 21.3709 2.5293C21.6373 2.1871 21.8529 2.21686 21.9163 2.57393ZM26.6086 2.73759C26.6466 2.93101 26.5959 2.99052 26.431 2.94588C26.2915 2.91613 26.1774 2.78223 26.152 2.61857C26.114 2.42515 26.1647 2.36564 26.3296 2.41027C26.4691 2.44003 26.5832 2.57393 26.6086 2.73759ZM29.6776 3.05003C29.9059 3.36247 29.741 3.71955 29.3606 3.71955C29.0435 3.71955 28.7391 3.21369 28.8786 2.93101C28.9674 2.73759 29.5127 2.81198 29.6776 3.05003ZM34.0529 3.60052C34.6236 3.89809 34.3953 4.24029 33.6344 4.24029C32.9115 4.24029 32.7847 4.04687 33.2539 3.66004C33.5963 3.37735 33.6344 3.37735 34.0529 3.60052ZM6.30484 11.843C6.9643 12.6762 7.01502 13.0928 6.48238 13.0928C5.92438 13.0928 5.72147 13.2267 5.49319 13.7326L5.29028 14.1938L5.04933 13.6135C4.63082 12.6613 4.93519 11.1586 5.5566 11.1586C5.67074 11.1586 6.00047 11.4711 6.30484 11.843ZM5.07469 14.8038C5.07469 15.0567 4.49132 15.7709 4.28841 15.7709C3.97136 15.7709 3.99673 15.5328 4.37719 15.1013C4.64351 14.774 5.07469 14.5955 5.07469 14.8038ZM2.15785 21.3353C2.15785 21.5436 2.09444 21.7519 2.03103 21.7965C1.86617 21.9156 1.72667 21.499 1.82812 21.2014C1.94226 20.8443 2.15785 20.9485 2.15785 21.3353ZM1.61253 22.7487C1.9803 23.1058 2.00567 23.1802 1.85348 23.4331C1.7013 23.6861 1.63789 23.6861 1.2828 23.5075C0.864295 23.3141 0.636021 22.957 0.636021 22.5553C0.636021 22.1834 1.15598 22.2875 1.61253 22.7487ZM2.46222 26.1112C2.58904 26.5129 2.39881 27.2271 2.15785 27.2271C1.82812 27.2271 1.75203 26.8254 1.96762 26.3195C2.18321 25.8434 2.34808 25.769 2.46222 26.1112ZM2.14517 28.2983C2.48758 28.7595 2.52563 28.7744 2.84267 28.581C3.02022 28.4619 3.21045 28.4024 3.24849 28.4619C3.36263 28.581 2.84267 29.8159 2.53831 30.1283C2.20858 30.4705 2.0564 30.3217 1.58716 29.1761C1.29548 28.4322 1.25743 28.2388 1.39694 28.0454C1.62521 27.718 1.73935 27.7627 2.14517 28.2983ZM4.25037 30.2622C4.3645 30.4556 4.56741 30.649 4.69423 30.6937C5.18883 30.8425 4.97324 31.1995 4.33914 31.3037C3.55286 31.4227 2.91877 31.1847 2.91877 30.7532C2.91877 29.9498 3.88259 29.5927 4.25037 30.2622ZM3.55286 31.8244C3.86991 31.8839 4.19964 31.9732 4.28841 32.0327C4.54205 32.2261 4.46596 32.5832 4.11087 32.732C3.86991 32.851 3.8065 32.9552 3.86991 33.1486C4.09818 33.7883 4.0855 33.9222 3.83186 33.9222C3.36263 33.9222 2.53831 32.5683 2.53831 31.8095C2.53831 31.5864 2.58904 31.5417 2.76658 31.6161C2.88072 31.6756 3.23581 31.7798 3.55286 31.8244ZM5.45515 33.6991C5.45515 33.9371 5.11274 34.1752 4.98592 34.0115C4.89714 33.9074 5.18883 33.4759 5.34101 33.4759C5.40442 33.4759 5.45515 33.58 5.45515 33.6991ZM5.9117 34.6215C5.94974 34.8596 6.03852 35.2464 6.08924 35.5142C6.20338 36.0498 6.15265 36.154 5.7722 36.154C5.53124 36.154 5.48051 36.0498 5.4171 35.4547C5.31565 34.3983 5.73415 33.7139 5.9117 34.6215ZM6.59652 36.9723C7.1038 37.5823 7.00234 37.7906 6.20338 37.7906C5.67074 37.7906 5.34101 37.4632 5.56928 37.1508C5.64538 37.0318 5.67074 36.8979 5.63269 36.8532C5.50588 36.7045 5.70879 36.4515 5.94974 36.4515C6.06388 36.4515 6.36825 36.6896 6.59652 36.9723ZM10.1221 38.9659C10.3123 39.0255 10.4772 39.1891 10.5025 39.323C10.5406 39.5313 10.4265 39.5759 9.767 39.5759C8.90463 39.5759 8.5749 39.4272 8.35931 38.9659C8.2198 38.6535 8.23249 38.6535 9.00608 38.7576C9.43727 38.8172 9.94455 38.9064 10.1221 38.9659ZM10.9464 40.186C11.403 40.4686 11.441 40.5281 11.2254 40.6174C10.7942 40.796 9.9065 40.3496 10.0714 40.0372C10.1982 39.7991 10.3377 39.8289 10.9464 40.186ZM16.4123 47.8185C16.8181 48.2499 16.9957 48.6516 16.8055 48.6516C16.6025 48.6516 15.8924 48.2202 15.7402 48.0119C15.5626 47.7589 15.626 47.3126 15.8416 47.3126C15.905 47.3126 16.1714 47.5358 16.4123 47.8185ZM17.1225 49.3807C17.3888 49.9758 17.2493 50.1543 16.8181 49.7675C16.6786 49.6485 16.6152 49.4551 16.6533 49.3211C16.7674 49.0087 16.9576 49.0385 17.1225 49.3807ZM17.3254 50.5858C17.5156 50.6751 17.8454 50.9429 18.0483 51.1809C18.2639 51.4338 18.4795 51.6273 18.5302 51.6273C18.5809 51.6273 18.7712 51.8653 18.9614 52.1629C19.3292 52.7134 19.3038 53.0258 18.936 52.639C18.8092 52.5051 18.4795 52.267 18.2005 52.1034C17.6298 51.7612 16.6152 50.7792 16.6152 50.5709C16.6152 50.3924 16.8942 50.4073 17.3254 50.5858Z" fill="#730301"/>
</svg>
