<svg width="24" height="33" viewBox="0 0 24 33" fill="none" xmlns="http://www.w3.org/2000/svg">
<g clip-path="url(#clip0_104_45)">
<path fill-rule="evenodd" clip-rule="evenodd" d="M11.9999 4.65405C11.9999 4.65405 12 4.65405 12 5.96335L12 7.27265L11.9245 7.27279C11.8745 7.27294 11.8006 7.27323 11.7057 7.27381C11.516 7.27498 11.2425 7.27731 10.9088 7.28198C10.2411 7.29134 9.33398 7.31003 8.37471 7.34736C7.41384 7.38474 6.40861 7.44052 5.54213 7.52327C4.65402 7.60808 3.99413 7.71467 3.66536 7.82804C3.36666 7.94039 3.09559 8.15319 2.87915 8.44534C2.66801 8.73032 2.51611 9.08104 2.43762 9.46409C2.13808 11.6554 1.99159 13.8778 1.99999 16.1039L2.00005 16.1186C1.98933 18.3539 2.13471 20.5857 2.43448 22.7862C2.52111 23.1497 2.67454 23.4802 2.88158 23.7485C3.0985 24.0296 3.36695 24.2329 3.66114 24.3389C3.98847 24.4529 4.6502 24.56 5.54213 24.6452C6.40861 24.7279 7.41384 24.7837 8.37471 24.8211C9.33398 24.8584 10.2411 24.8771 10.9088 24.8865C11.2425 24.8911 11.516 24.8935 11.7057 24.8946C11.8006 24.8952 11.8745 24.8955 11.9245 24.8957H12.0755C12.1255 24.8955 12.1994 24.8952 12.2943 24.8946C12.4841 24.8935 12.7575 24.8911 13.0912 24.8865C13.759 24.8771 14.666 24.8584 15.6253 24.8211C16.5862 24.7837 17.5914 24.7279 18.4579 24.6452C19.346 24.5604 20.0059 24.4538 20.3347 24.3404C20.6334 24.2281 20.9044 24.0153 21.1209 23.7231C21.332 23.4381 21.4839 23.0874 21.5624 22.7044C21.8596 20.5297 22.0061 18.3243 22 16.1151L22 16.1022C22.0107 13.8592 21.8643 11.6196 21.5624 9.41174C21.4839 9.02868 21.332 8.67796 21.1209 8.39297C20.9069 8.10417 20.6396 7.8929 20.3449 7.77957C20.005 7.67486 19.3426 7.57834 18.4642 7.50175C17.5959 7.42604 16.5893 7.37506 15.6279 7.3409C14.6679 7.3068 13.7602 7.28972 13.0921 7.28118C12.7582 7.27691 12.4846 7.27478 12.2947 7.27371L12.0757 7.27278L12 7.27265L12 5.96335C12 4.65405 11.9999 4.65405 11.9999 4.65405L12.0797 4.65419C12.1312 4.65433 12.2067 4.6546 12.3033 4.65514C12.4963 4.65622 12.7737 4.65838 13.1116 4.66271C13.7873 4.67135 14.7071 4.68864 15.6821 4.72327C16.6557 4.75786 17.6916 4.80998 18.5971 4.88894C19.4767 4.96564 20.3115 5.07325 20.8372 5.24133C20.849 5.24508 20.8606 5.24911 20.8722 5.25341C21.5123 5.49051 22.0933 5.94458 22.5565 6.56975C23.0196 7.19492 23.3486 7.96905 23.5101 8.81395C23.5155 8.84223 23.5202 8.87074 23.5241 8.89943C23.852 11.2794 24.0113 13.6939 24 16.1122C24.0063 18.4943 23.847 20.8722 23.5241 23.2165C23.5202 23.2453 23.5155 23.2738 23.5101 23.3021C23.3486 24.147 23.0196 24.9212 22.5565 25.5463C22.0933 26.1715 21.5123 26.6256 20.8722 26.8627L20.8584 26.8677C20.3247 27.0545 19.4827 27.1729 18.6034 27.2568C17.6961 27.3435 16.6588 27.4006 15.6847 27.4385C14.709 27.4765 13.7886 27.4954 13.1126 27.5049C12.7744 27.5096 12.4969 27.512 12.3037 27.5132C12.2071 27.5138 12.1315 27.5141 12.0799 27.5142L12.0005 27.5144L11.9201 27.5142C11.8685 27.5141 11.7929 27.5138 11.6963 27.5132C11.5031 27.512 11.2256 27.5096 10.8874 27.5049C10.2115 27.4954 9.29103 27.4765 8.3153 27.4385C7.34118 27.4006 6.3039 27.3435 5.39664 27.2568C4.51733 27.1729 3.67529 27.0545 3.14165 26.8677L3.13609 26.8657C2.50901 26.6411 1.9368 26.2084 1.47472 25.6097C1.01264 25.0109 0.676315 24.2662 0.498248 23.4476C0.489209 23.406 0.481747 23.3639 0.475889 23.3214C0.14805 20.9417 -0.0112584 18.5275 -7.92317e-06 16.1095C-0.00872218 13.7096 0.150573 11.3137 0.475881 8.95186C0.479836 8.92315 0.484522 8.89462 0.489932 8.86632C0.651451 8.02142 0.980402 7.24729 1.44356 6.62212C1.90672 5.99695 2.48769 5.54288 3.12777 5.30578L3.14165 5.30078C3.67529 5.11392 4.51733 4.99558 5.39664 4.91161C6.3039 4.82496 7.34118 4.76782 8.3153 4.72992C9.29103 4.69195 10.2115 4.67301 10.8874 4.66354C11.2256 4.6588 11.5031 4.65643 11.6963 4.65524C11.7929 4.65465 11.8685 4.65435 11.9201 4.6542L11.9999 4.65405Z" fill="#730301"/>
<path fill-rule="evenodd" clip-rule="evenodd" d="M9.24718 10.6972C9.55499 10.4628 9.9348 10.4603 10.2443 10.6908L15.9943 14.9722C16.3069 15.205 16.5 15.6395 16.5 16.1104C16.5 16.5812 16.3069 17.0157 15.9943 17.2485L10.2443 21.5299C9.9348 21.7604 9.55499 21.7579 9.24718 21.5235C8.93937 21.2891 8.75 20.858 8.75 20.3918V11.829C8.75 11.3627 8.93937 10.9316 9.24718 10.6972ZM10.75 14.0798V18.141L13.4771 16.1104L10.75 14.0798Z" fill="#730301"/>
</g>
<defs>
<clipPath id="clip0_104_45">
<rect width="24" height="31.4231" fill="white" transform="translate(0 0.726074)"/>
</clipPath>
</defs>
</svg>
